<svg width="32" height="32" viewBox="0 0 32 32" fill="none" xmlns="http://www.w3.org/2000/svg">
<path d="M18 24C18 24.5523 17.5523 25 17 25H15C14.4477 25 14 24.5523 14 24C14 23.4477 14.4477 23 15 23H17C17.5523 23 18 23.4477 18 24Z" fill="#242729"/>
<path d="M19 8C19.5523 8 20 7.55229 20 7C20 6.44772 19.5523 6 19 6H13C12.4477 6 12 6.44772 12 7C12 7.55229 12.4477 8 13 8H19Z" fill="#242729"/>
<path fill-rule="evenodd" clip-rule="evenodd" d="M23.362 2.32698C22.7202 2 21.8802 2 20.2 2H11.8C10.1198 2 9.27977 2 8.63803 2.32698C8.07354 2.6146 7.6146 3.07354 7.32698 3.63803C7 4.27976 7 5.11984 7 6.8V25.2C7 26.8802 7 27.7202 7.32698 28.362C7.6146 28.9265 8.07354 29.3854 8.63803 29.673C9.27976 30 10.1198 30 11.8 30H20.2C21.8802 30 22.7202 30 23.362 29.673C23.9265 29.3854 24.3854 28.9265 24.673 28.362C25 27.7202 25 26.8802 25 25.2L25 6.8C25 5.11984 25 4.27976 24.673 3.63803C24.3854 3.07354 23.9265 2.6146 23.362 2.32698ZM23 25.2L23 6.8C23 5.92692 22.9984 5.39239 22.9658 4.99247C22.9505 4.80617 22.9314 4.69345 22.9153 4.625C22.9076 4.59244 22.9012 4.57241 22.8973 4.56158C22.8936 4.55118 22.891 4.54601 22.891 4.54601C22.7951 4.35785 22.6422 4.20487 22.454 4.10899C22.454 4.10899 22.4488 4.10636 22.4384 4.10265C22.4276 4.09879 22.4076 4.09236 22.375 4.08469C22.3065 4.06857 22.1938 4.04945 22.0075 4.03423C21.6076 4.00156 21.0731 4 20.2 4L11.8 4C10.9269 4 10.3924 4.00156 9.99247 4.03423C9.80617 4.04945 9.69345 4.06857 9.625 4.08469C9.59244 4.09236 9.57241 4.09879 9.56158 4.10265C9.55118 4.10636 9.54601 4.10899 9.54601 4.10899C9.35785 4.20487 9.20487 4.35785 9.109 4.54601C9.109 4.54601 9.10637 4.55118 9.10265 4.56158C9.09879 4.57241 9.09236 4.59244 9.08469 4.625C9.06857 4.69345 9.04945 4.80617 9.03423 4.99247C9.00156 5.39239 9 5.92692 9 6.8L9 25.2C9 26.0731 9.00156 26.6076 9.03423 27.0075C9.04945 27.1938 9.06857 27.3065 9.08469 27.375C9.09236 27.4076 9.09879 27.4276 9.10265 27.4384C9.10636 27.4488 9.10899 27.454 9.10899 27.454C9.20487 27.6422 9.35785 27.7951 9.54601 27.891C9.54601 27.891 9.55118 27.8936 9.56158 27.8973C9.57241 27.9012 9.59244 27.9076 9.625 27.9153C9.69345 27.9314 9.80617 27.9505 9.99247 27.9658C10.3924 27.9984 10.9269 28 11.8 28H20.2C21.0731 28 21.6076 27.9984 22.0075 27.9658C22.1938 27.9505 22.3065 27.9314 22.375 27.9153C22.4076 27.9076 22.4276 27.9012 22.4384 27.8973C22.4447 27.8951 22.4487 27.8934 22.4512 27.8923L22.454 27.891C22.6422 27.7951 22.7951 27.6422 22.891 27.454C22.891 27.454 22.8936 27.4488 22.8973 27.4384C22.9012 27.4276 22.9076 27.4076 22.9153 27.375C22.9314 27.3065 22.9505 27.1938 22.9658 27.0075C22.9984 26.6076 23 26.0731 23 25.2Z" fill="#242729"/>
</svg>
