<svg width="32" height="32" viewBox="0 0 32 32" fill="none" xmlns="http://www.w3.org/2000/svg">
<path d="M16 3C11.6746 3 7.82778 5.10547 5.21829 8.37636C4.87386 8.80808 4.94463 9.43728 5.37636 9.78171C5.80808 10.1261 6.43728 10.0554 6.78171 9.62364C9.05697 6.7717 12.3522 5 16 5C19.6478 5 22.943 6.7717 25.2183 9.62364C25.5627 10.0554 26.1919 10.1261 26.6236 9.78171C27.0554 9.43728 27.1261 8.80808 26.7817 8.37636C24.1722 5.10547 20.3254 3 16 3Z" fill="#242729"/>
<path d="M4 18.816C4 12.2738 9.38904 7 16 7C22.611 7 28 12.2738 28 18.816C28 21.3757 25.8939 23.4213 23.3329 23.4213C20.7719 23.4213 18.6659 21.3757 18.6659 18.816C18.6659 17.393 17.4876 16.2107 15.9988 16.2107C14.51 16.2107 13.3317 17.393 13.3317 18.816C13.3317 22.3239 15.2085 25.4089 18.0449 27.1474C18.5158 27.436 18.6635 28.0517 18.3749 28.5226C18.0863 28.9934 17.4706 29.1412 16.9998 28.8526C13.6049 26.7718 11.3317 23.0596 11.3317 18.816C11.3317 16.2563 13.4378 14.2107 15.9988 14.2107C18.5598 14.2107 20.6659 16.2563 20.6659 18.816C20.6659 20.239 21.8441 21.4213 23.3329 21.4213C24.8217 21.4213 26 20.239 26 18.816C26 13.4101 21.5384 9 16 9C10.4616 9 6 13.4101 6 18.816C6 20.0713 6.14291 21.2951 6.40643 22.4764C6.52666 23.0155 6.18716 23.5499 5.64812 23.6702C5.10908 23.7904 4.57464 23.4509 4.4544 22.9119C4.16034 21.5935 4 20.2238 4 18.816Z" fill="#242729"/>
<path d="M16 18C16.5523 18 17 18.4477 17 19C17 22.2392 19.8731 25 23.5911 25C23.6582 25 23.7108 24.9967 23.7886 24.9919C23.8319 24.9892 23.8831 24.986 23.9489 24.9826C24.5004 24.9544 24.9704 25.3786 24.9987 25.9302C25.0269 26.4818 24.6027 26.9518 24.0511 26.98C24.0306 26.9811 24.0043 26.9827 23.974 26.9846C23.8718 26.9909 23.7233 27 23.5911 27C18.9244 27 15 23.4934 15 19C15 18.4477 15.4477 18 16 18Z" fill="#242729"/>
<path d="M16 12C12.7447 12 10 14.8295 10 18.4552C10 21.4365 10.8785 24.1906 12.3659 26.4502C12.6695 26.9115 12.5417 27.5316 12.0804 27.8353C11.6191 28.1389 10.999 28.0111 10.6953 27.5498C8.99615 24.9685 8 21.8331 8 18.4552C8 13.8454 11.5234 10 16 10C20.4766 10 24 13.8454 24 18.4552C24 19.0074 23.5523 19.4552 23 19.4552C22.4477 19.4552 22 19.0074 22 18.4552C22 14.8295 19.2553 12 16 12Z" fill="#242729"/>
</svg>
