<?xml version="1.0" encoding="UTF-8"?>
<svg xmlns="http://www.w3.org/2000/svg" xmlns:xlink="http://www.w3.org/1999/xlink" width="32px" height="32px" viewBox="0 0 32 32" version="1.1">
<g id="surface1">
<path style=" stroke:none;fill-rule:nonzero;fill:rgb(98.823529%,98.823529%,98.823529%);fill-opacity:1;" d="M 16.460938 5.171875 C 16.75 5.367188 16.945312 5.59375 17.03125 5.9375 C 17.082031 6.3125 17.035156 6.621094 16.8125 6.9375 C 16.699219 7.0625 16.582031 7.160156 16.429688 7.242188 C 16.332031 7.304688 16.332031 7.304688 16.324219 7.421875 C 16.324219 7.464844 16.328125 7.507812 16.328125 7.546875 C 16.332031 7.570312 16.332031 7.59375 16.332031 7.617188 C 16.335938 7.679688 16.339844 7.746094 16.34375 7.8125 C 16.34375 7.847656 16.347656 7.882812 16.347656 7.921875 C 16.355469 8.039062 16.355469 8.039062 16.375 8.15625 C 16.394531 8.167969 16.417969 8.175781 16.4375 8.1875 C 16.425781 8.257812 16.417969 8.332031 16.40625 8.40625 C 16.515625 8.480469 16.585938 8.511719 16.71875 8.5 C 16.71875 8.519531 16.71875 8.542969 16.71875 8.5625 C 16.746094 8.566406 16.746094 8.566406 16.777344 8.566406 C 16.960938 8.582031 17.132812 8.613281 17.3125 8.65625 C 17.324219 8.636719 17.332031 8.613281 17.34375 8.59375 C 17.34375 8.625 17.34375 8.65625 17.34375 8.6875 C 17.378906 8.691406 17.414062 8.699219 17.453125 8.703125 C 17.652344 8.746094 17.824219 8.84375 18 8.933594 C 18.023438 8.945312 18.042969 8.957031 18.0625 8.96875 C 18.101562 8.988281 18.140625 9.011719 18.179688 9.03125 C 18.367188 9.140625 18.574219 9.167969 18.785156 9.203125 C 18.851562 9.210938 18.914062 9.222656 18.976562 9.230469 C 19.222656 9.273438 19.222656 9.273438 19.46875 9.28125 C 19.46875 9.300781 19.46875 9.324219 19.46875 9.34375 C 19.570312 9.34375 19.675781 9.34375 19.78125 9.34375 C 19.78125 9.363281 19.78125 9.386719 19.78125 9.40625 C 19.820312 9.410156 19.859375 9.414062 19.902344 9.417969 C 20.066406 9.433594 20.21875 9.476562 20.375 9.523438 C 20.417969 9.535156 20.417969 9.535156 20.460938 9.546875 C 20.667969 9.605469 20.867188 9.675781 21.0625 9.757812 C 21.167969 9.800781 21.238281 9.828125 21.34375 9.78125 C 21.34375 9.824219 21.34375 9.863281 21.34375 9.90625 C 21.371094 9.914062 21.398438 9.925781 21.429688 9.933594 C 21.515625 9.964844 21.601562 9.996094 21.6875 10.03125 C 21.71875 10.042969 21.75 10.050781 21.78125 10.0625 C 21.769531 10.074219 21.761719 10.082031 21.75 10.09375 C 21.773438 10.109375 21.800781 10.125 21.828125 10.136719 C 22.070312 10.28125 22.285156 10.441406 22.5 10.625 C 22.523438 10.644531 22.546875 10.664062 22.574219 10.6875 C 22.761719 10.84375 22.914062 11.023438 23.0625 11.21875 C 23.089844 11.253906 23.089844 11.253906 23.117188 11.289062 C 23.210938 11.410156 23.292969 11.539062 23.371094 11.671875 C 23.382812 11.6875 23.394531 11.703125 23.40625 11.71875 C 23.425781 11.71875 23.449219 11.71875 23.46875 11.71875 C 23.472656 11.738281 23.472656 11.757812 23.476562 11.78125 C 23.507812 11.914062 23.570312 12.027344 23.632812 12.152344 C 23.9375 12.777344 23.9375 12.777344 23.9375 13 C 23.957031 13.011719 23.980469 13.019531 24 13.03125 C 24.019531 13.054688 24.019531 13.054688 24.039062 13.074219 C 24.117188 13.144531 24.195312 13.167969 24.292969 13.203125 C 24.328125 13.21875 24.363281 13.230469 24.398438 13.246094 C 24.433594 13.257812 24.464844 13.269531 24.5 13.28125 C 24.640625 13.332031 24.710938 13.390625 24.8125 13.5 C 24.828125 13.515625 24.84375 13.527344 24.863281 13.542969 C 25.375 14.003906 25.484375 14.757812 25.53125 15.40625 C 25.554688 15.890625 25.527344 16.355469 25.449219 16.835938 C 25.425781 16.972656 25.40625 17.109375 25.40625 17.25 C 25.386719 17.269531 25.363281 17.292969 25.34375 17.3125 C 25.320312 17.371094 25.296875 17.425781 25.273438 17.484375 C 25.132812 17.824219 24.960938 18.128906 24.640625 18.328125 C 24.625 18.339844 24.605469 18.351562 24.585938 18.367188 C 24.453125 18.449219 24.332031 18.488281 24.179688 18.523438 C 24.046875 18.578125 23.992188 18.613281 23.921875 18.738281 C 23.832031 18.960938 23.761719 19.191406 23.691406 19.421875 C 23.503906 19.992188 23.167969 20.488281 22.78125 20.9375 C 22.761719 20.960938 22.742188 20.984375 22.71875 21.011719 C 22.503906 21.265625 22.242188 21.464844 21.96875 21.65625 C 21.949219 21.675781 21.925781 21.699219 21.90625 21.71875 C 21.109375 22.199219 20.226562 22.507812 19.355469 22.816406 C 19.304688 22.835938 19.304688 22.835938 19.253906 22.851562 C 19.09375 22.910156 18.929688 22.964844 18.765625 23.023438 C 18.195312 23.226562 17.628906 23.441406 17.0625 23.664062 C 17.019531 23.679688 16.976562 23.699219 16.933594 23.714844 C 16.636719 23.832031 16.34375 23.949219 16.054688 24.066406 C 15.742188 24.191406 15.433594 24.316406 15.121094 24.4375 C 15.085938 24.453125 15.050781 24.464844 15.015625 24.480469 C 14.316406 24.753906 14.316406 24.753906 14.09375 24.71875 C 13.996094 24.65625 13.949219 24.605469 13.917969 24.496094 C 13.878906 24.304688 13.867188 24.125 13.871094 23.929688 C 13.871094 23.871094 13.875 23.8125 13.875 23.753906 C 13.875 23.660156 13.878906 23.566406 13.878906 23.476562 C 13.878906 23.386719 13.882812 23.292969 13.882812 23.203125 C 13.882812 23.175781 13.882812 23.148438 13.882812 23.121094 C 13.886719 22.972656 13.882812 22.867188 13.78125 22.75 C 13.71875 22.71875 13.71875 22.71875 13.644531 22.710938 C 13.617188 22.707031 13.585938 22.703125 13.558594 22.699219 C 13.527344 22.695312 13.5 22.691406 13.46875 22.6875 C 13.421875 22.679688 13.421875 22.679688 13.375 22.675781 C 13.28125 22.660156 13.183594 22.648438 13.085938 22.640625 C 12.691406 22.589844 12.691406 22.589844 12.53125 22.5625 C 12.519531 22.582031 12.511719 22.605469 12.5 22.625 C 12.476562 22.609375 12.457031 22.597656 12.433594 22.582031 C 12.34375 22.53125 12.269531 22.507812 12.171875 22.484375 C 12.140625 22.476562 12.105469 22.46875 12.074219 22.460938 C 12.039062 22.453125 12.003906 22.445312 11.96875 22.4375 C 11.933594 22.429688 11.898438 22.421875 11.863281 22.414062 C 11.714844 22.378906 11.570312 22.34375 11.421875 22.3125 C 11.386719 22.304688 11.351562 22.296875 11.3125 22.289062 C 11.28125 22.28125 11.25 22.277344 11.21875 22.269531 C 11.1875 22.261719 11.1875 22.261719 11.15625 22.25 C 11.144531 22.230469 11.136719 22.207031 11.125 22.1875 C 11.0625 22.164062 11.0625 22.164062 10.988281 22.144531 C 10.8125 22.097656 10.65625 22.027344 10.492188 21.949219 C 10.464844 21.933594 10.433594 21.921875 10.40625 21.90625 C 9.765625 21.59375 9.117188 21.128906 8.71875 20.53125 C 8.699219 20.503906 8.679688 20.472656 8.660156 20.445312 C 8.507812 20.214844 8.378906 19.984375 8.269531 19.730469 C 8.222656 19.609375 8.222656 19.609375 8.125 19.53125 C 8.113281 19.46875 8.101562 19.40625 8.09375 19.34375 C 8.015625 18.917969 8.015625 18.917969 7.78125 18.578125 C 7.679688 18.53125 7.578125 18.5 7.46875 18.46875 C 6.988281 18.210938 6.703125 17.824219 6.53125 17.3125 C 6.230469 16.308594 6.179688 14.921875 6.6875 13.972656 C 6.785156 13.820312 6.898438 13.691406 7.03125 13.5625 C 7.046875 13.546875 7.0625 13.527344 7.082031 13.511719 C 7.265625 13.332031 7.519531 13.234375 7.75 13.125 C 7.769531 13.113281 7.792969 13.105469 7.8125 13.09375 C 7.8125 13.074219 7.8125 13.050781 7.8125 13.03125 C 7.84375 13.042969 7.875 13.050781 7.90625 13.0625 C 7.914062 13.039062 7.914062 13.039062 7.921875 13.011719 C 8.050781 12.59375 8.210938 12.203125 8.40625 11.8125 C 8.441406 11.746094 8.441406 11.746094 8.46875 11.660156 C 8.507812 11.578125 8.558594 11.53125 8.625 11.46875 C 8.667969 11.410156 8.710938 11.355469 8.75 11.296875 C 9.164062 10.742188 9.671875 10.324219 10.28125 10 C 10.304688 9.988281 10.328125 9.976562 10.347656 9.964844 C 10.449219 9.910156 10.542969 9.867188 10.652344 9.839844 C 10.6875 9.832031 10.71875 9.820312 10.75 9.8125 C 10.761719 9.792969 10.769531 9.769531 10.78125 9.75 C 10.839844 9.726562 10.839844 9.726562 10.921875 9.703125 C 10.949219 9.695312 10.976562 9.6875 11.003906 9.679688 C 11.035156 9.671875 11.0625 9.664062 11.09375 9.65625 C 11.175781 9.632812 11.257812 9.605469 11.339844 9.578125 C 11.40625 9.5625 11.40625 9.5625 11.5 9.5625 C 11.511719 9.542969 11.519531 9.519531 11.53125 9.5 C 11.609375 9.480469 11.609375 9.480469 11.71875 9.460938 C 11.761719 9.449219 11.804688 9.441406 11.84375 9.433594 C 11.871094 9.429688 11.894531 9.425781 11.917969 9.421875 C 12.007812 9.40625 12.097656 9.386719 12.1875 9.371094 C 12.253906 9.355469 12.320312 9.34375 12.390625 9.328125 C 12.421875 9.324219 12.457031 9.316406 12.492188 9.308594 C 12.664062 9.277344 12.835938 9.246094 13.011719 9.222656 C 13.394531 9.171875 13.679688 9.082031 14.015625 8.890625 C 14.15625 8.808594 14.300781 8.753906 14.457031 8.703125 C 14.480469 8.695312 14.5 8.6875 14.523438 8.679688 C 14.949219 8.550781 14.949219 8.550781 15.15625 8.5625 C 15.167969 8.542969 15.175781 8.519531 15.1875 8.5 C 15.222656 8.503906 15.222656 8.503906 15.261719 8.507812 C 15.289062 8.503906 15.316406 8.503906 15.34375 8.5 C 15.363281 8.46875 15.386719 8.4375 15.40625 8.40625 C 15.417969 8.417969 15.425781 8.425781 15.4375 8.4375 C 15.507812 8.054688 15.519531 7.671875 15.53125 7.28125 C 15.511719 7.277344 15.492188 7.273438 15.472656 7.269531 C 15.246094 7.207031 15.050781 6.992188 14.929688 6.796875 C 14.902344 6.757812 14.902344 6.757812 14.875 6.71875 C 14.855469 6.71875 14.832031 6.71875 14.8125 6.71875 C 14.8125 6.6875 14.8125 6.652344 14.8125 6.617188 C 14.816406 6.507812 14.816406 6.507812 14.796875 6.425781 C 14.738281 6.128906 14.804688 5.800781 14.9375 5.53125 C 14.984375 5.515625 14.984375 5.515625 15.03125 5.5 C 15.054688 5.457031 15.074219 5.417969 15.09375 5.375 C 15.433594 4.988281 16.023438 4.929688 16.460938 5.171875 Z M 14.84375 6.625 C 14.875 6.6875 14.875 6.6875 14.875 6.6875 Z M 11.445312 11.976562 C 11.417969 11.984375 11.394531 11.996094 11.367188 12.007812 C 11.304688 12.03125 11.246094 12.0625 11.1875 12.09375 C 11.171875 12.140625 11.171875 12.140625 11.15625 12.1875 C 11.132812 12.191406 11.109375 12.195312 11.085938 12.195312 C 10.9375 12.234375 10.835938 12.339844 10.71875 12.4375 C 10.6875 12.464844 10.6875 12.464844 10.65625 12.488281 C 10.113281 12.976562 9.949219 13.8125 9.84375 14.5 C 9.839844 14.523438 9.835938 14.546875 9.832031 14.566406 C 9.632812 15.921875 9.621094 17.808594 10.40625 19.003906 C 10.464844 19.078125 10.527344 19.148438 10.59375 19.21875 C 10.613281 19.242188 10.632812 19.261719 10.652344 19.285156 C 11.445312 20.148438 13.003906 20.304688 14.09375 20.375 C 14.1875 20.375 14.28125 20.375 14.375 20.375 C 14.4375 20.375 14.4375 20.375 14.46875 20.40625 C 14.53125 20.410156 14.59375 20.414062 14.652344 20.417969 C 14.714844 20.417969 14.714844 20.417969 14.773438 20.421875 C 14.820312 20.421875 14.863281 20.421875 14.90625 20.421875 C 14.929688 20.425781 14.953125 20.425781 14.976562 20.425781 C 15.566406 20.441406 16.160156 20.445312 16.75 20.4375 C 16.789062 20.4375 16.828125 20.4375 16.867188 20.4375 C 18.253906 20.417969 20.105469 20.304688 21.164062 19.308594 C 21.851562 18.601562 22.042969 17.351562 22.035156 16.40625 C 22.035156 16.378906 22.03125 16.347656 22.03125 16.316406 C 22.03125 16.25 22.03125 16.25 22.0625 16.1875 C 22.148438 14.992188 21.996094 13.578125 21.273438 12.589844 C 21.246094 12.5625 21.246094 12.5625 21.21875 12.53125 C 21.199219 12.53125 21.175781 12.53125 21.15625 12.53125 C 21.15625 12.511719 21.15625 12.488281 21.15625 12.46875 C 20.472656 11.785156 19.398438 11.605469 18.480469 11.476562 C 18.457031 11.472656 18.433594 11.46875 18.40625 11.464844 C 17.9375 11.367188 17.9375 11.367188 17.5 11.46875 C 17.5 11.4375 17.5 11.40625 17.5 11.375 C 17.476562 11.375 17.449219 11.375 17.421875 11.375 C 17.390625 11.375 17.355469 11.375 17.320312 11.375 C 17.273438 11.378906 17.273438 11.378906 17.222656 11.378906 C 17.125 11.375 17.125 11.375 17.054688 11.359375 C 16.957031 11.339844 16.863281 11.335938 16.765625 11.332031 C 16.722656 11.332031 16.683594 11.332031 16.644531 11.328125 C 16.621094 11.328125 16.601562 11.328125 16.582031 11.328125 C 16.519531 11.328125 16.457031 11.324219 16.394531 11.320312 C 14.761719 11.269531 12.972656 11.347656 11.445312 11.976562 Z M 11.445312 11.976562 "/>
<path style=" stroke:none;fill-rule:nonzero;fill:rgb(97.647059%,98.039216%,98.039216%);fill-opacity:1;" d="M 13.375 14.3125 C 13.703125 14.53125 13.890625 14.773438 14 15.15625 C 14.089844 15.6875 14.105469 16.3125 13.804688 16.773438 C 13.667969 16.945312 13.511719 17.050781 13.292969 17.089844 C 13.054688 17.105469 12.824219 17.082031 12.625 16.9375 C 12.5 16.820312 12.414062 16.691406 12.34375 16.53125 C 12.296875 16.5625 12.296875 16.5625 12.25 16.59375 C 12.25 16.089844 12.25 15.582031 12.25 15.0625 C 12.269531 15.050781 12.292969 15.042969 12.3125 15.03125 C 12.34375 14.972656 12.34375 14.972656 12.367188 14.902344 C 12.484375 14.636719 12.605469 14.492188 12.875 14.375 C 13.042969 14.324219 13.207031 14.335938 13.375 14.375 C 13.375 14.355469 13.375 14.332031 13.375 14.3125 Z M 12.28125 16.3125 C 12.28125 16.363281 12.28125 16.414062 12.28125 16.46875 C 12.292969 16.46875 12.300781 16.46875 12.3125 16.46875 C 12.3125 16.417969 12.3125 16.367188 12.3125 16.3125 C 12.300781 16.3125 12.292969 16.3125 12.28125 16.3125 Z M 12.28125 16.3125 "/>
<path style=" stroke:none;fill-rule:nonzero;fill:rgb(98.039216%,98.039216%,98.039216%);fill-opacity:1;" d="M 19.195312 14.507812 C 19.566406 14.890625 19.578125 15.417969 19.570312 15.925781 C 19.558594 16.296875 19.476562 16.628906 19.199219 16.890625 C 19.003906 17.066406 18.820312 17.09375 18.5625 17.09375 C 18.328125 17.0625 18.148438 16.964844 18 16.78125 C 17.808594 16.457031 17.769531 16.128906 17.773438 15.757812 C 17.773438 15.722656 17.773438 15.6875 17.773438 15.648438 C 17.777344 15.261719 17.820312 14.894531 18.085938 14.59375 C 18.40625 14.289062 18.832031 14.265625 19.195312 14.507812 Z M 19.195312 14.507812 "/>
<path style=" stroke:none;fill-rule:nonzero;fill:rgb(77.254903%,77.64706%,77.64706%);fill-opacity:1;" d="M 16.8125 5.53125 C 16.9375 5.632812 16.980469 5.789062 17.03125 5.9375 C 17.066406 6.320312 17.042969 6.613281 16.8125 6.9375 C 16.699219 7.0625 16.582031 7.160156 16.429688 7.242188 C 16.332031 7.304688 16.332031 7.304688 16.324219 7.421875 C 16.324219 7.464844 16.328125 7.507812 16.328125 7.546875 C 16.332031 7.570312 16.332031 7.59375 16.332031 7.617188 C 16.335938 7.679688 16.339844 7.746094 16.34375 7.8125 C 16.347656 7.867188 16.347656 7.867188 16.347656 7.921875 C 16.355469 8.039062 16.355469 8.039062 16.375 8.15625 C 16.394531 8.167969 16.417969 8.175781 16.4375 8.1875 C 16.425781 8.257812 16.417969 8.332031 16.40625 8.40625 C 16.515625 8.480469 16.585938 8.511719 16.71875 8.5 C 16.71875 8.519531 16.71875 8.542969 16.71875 8.5625 C 16.746094 8.566406 16.746094 8.566406 16.777344 8.566406 C 16.960938 8.582031 17.132812 8.613281 17.3125 8.65625 C 17.324219 8.636719 17.332031 8.613281 17.34375 8.59375 C 17.34375 8.625 17.34375 8.65625 17.34375 8.6875 C 17.363281 8.691406 17.382812 8.695312 17.402344 8.699219 C 17.429688 8.703125 17.453125 8.710938 17.480469 8.714844 C 17.503906 8.71875 17.53125 8.726562 17.558594 8.730469 C 17.625 8.75 17.625 8.75 17.6875 8.8125 C 17.652344 8.804688 17.613281 8.796875 17.574219 8.789062 C 17.445312 8.757812 17.316406 8.730469 17.183594 8.703125 C 17.125 8.691406 17.125 8.691406 17.066406 8.679688 C 17.003906 8.667969 16.941406 8.65625 16.882812 8.644531 C 16.820312 8.632812 16.761719 8.621094 16.699219 8.609375 C 16.664062 8.601562 16.628906 8.59375 16.59375 8.585938 C 16.402344 8.539062 16.402344 8.539062 16.335938 8.445312 C 16.304688 8.355469 16.300781 8.273438 16.292969 8.179688 C 16.289062 8.140625 16.289062 8.101562 16.285156 8.0625 C 16.28125 8.023438 16.28125 7.984375 16.277344 7.945312 C 16.273438 7.902344 16.273438 7.863281 16.269531 7.824219 C 16.242188 7.421875 16.242188 7.421875 16.25 7.28125 C 16.324219 7.210938 16.324219 7.210938 16.425781 7.15625 C 16.710938 6.980469 16.855469 6.792969 16.957031 6.472656 C 17.007812 6.210938 16.964844 5.964844 16.875 5.71875 C 16.863281 5.679688 16.851562 5.644531 16.835938 5.605469 C 16.828125 5.582031 16.820312 5.554688 16.8125 5.53125 Z M 16.8125 5.53125 "/>
<path style=" stroke:none;fill-rule:nonzero;fill:rgb(78.039217%,78.039217%,78.431374%);fill-opacity:1;" d="M 13.3125 22.625 C 13.515625 22.613281 13.664062 22.617188 13.84375 22.71875 C 13.957031 22.835938 13.972656 22.953125 13.972656 23.113281 C 13.972656 23.140625 13.972656 23.167969 13.96875 23.199219 C 13.96875 23.226562 13.96875 23.257812 13.96875 23.289062 C 13.96875 23.355469 13.96875 23.417969 13.96875 23.484375 C 13.96875 23.585938 13.964844 23.6875 13.964844 23.789062 C 13.964844 23.886719 13.964844 23.984375 13.964844 24.082031 C 13.964844 24.109375 13.964844 24.140625 13.960938 24.171875 C 13.960938 24.34375 13.964844 24.476562 14.074219 24.621094 C 14.152344 24.675781 14.230469 24.65625 14.324219 24.644531 C 14.453125 24.613281 14.574219 24.570312 14.699219 24.523438 C 14.78125 24.5 14.78125 24.5 14.875 24.53125 C 14.792969 24.5625 14.707031 24.59375 14.625 24.625 C 14.601562 24.632812 14.578125 24.644531 14.554688 24.652344 C 14.394531 24.710938 14.265625 24.734375 14.09375 24.71875 C 13.996094 24.65625 13.949219 24.605469 13.917969 24.496094 C 13.878906 24.304688 13.867188 24.125 13.871094 23.929688 C 13.871094 23.871094 13.875 23.8125 13.875 23.753906 C 13.875 23.660156 13.878906 23.566406 13.878906 23.476562 C 13.878906 23.386719 13.882812 23.292969 13.882812 23.203125 C 13.882812 23.175781 13.882812 23.148438 13.882812 23.121094 C 13.886719 22.972656 13.882812 22.867188 13.78125 22.75 C 13.699219 22.722656 13.625 22.707031 13.539062 22.695312 C 13.507812 22.6875 13.507812 22.6875 13.472656 22.683594 C 13.421875 22.671875 13.367188 22.664062 13.3125 22.65625 C 13.3125 22.644531 13.3125 22.636719 13.3125 22.625 Z M 13.3125 22.625 "/>
<path style=" stroke:none;fill-rule:nonzero;fill:rgb(71.764708%,72.156864%,72.549021%);fill-opacity:1;" d="M 22.0625 15.28125 C 22.074219 15.28125 22.082031 15.28125 22.09375 15.28125 C 22.09375 15.441406 22.09375 15.597656 22.09375 15.757812 C 22.09375 15.8125 22.097656 15.867188 22.097656 15.921875 C 22.097656 16.199219 22.097656 16.472656 22.0625 16.75 C 22.050781 16.75 22.042969 16.75 22.03125 16.75 C 22.023438 16.667969 22.019531 16.585938 22.015625 16.503906 C 22.011719 16.480469 22.011719 16.457031 22.007812 16.433594 C 21.996094 16.257812 21.996094 16.257812 22.03125 16.1875 C 22.035156 16.136719 22.035156 16.089844 22.03125 16.039062 C 22.03125 16.007812 22.03125 15.980469 22.03125 15.949219 C 22.03125 15.886719 22.03125 15.824219 22.03125 15.761719 C 22.027344 15.597656 22.035156 15.441406 22.0625 15.28125 Z M 22.0625 15.28125 "/>
<path style=" stroke:none;fill-rule:nonzero;fill:rgb(76.862746%,77.254903%,77.64706%);fill-opacity:1;" d="M 7.4375 13.28125 C 7.457031 13.292969 7.480469 13.300781 7.5 13.3125 C 7.460938 13.339844 7.417969 13.363281 7.378906 13.390625 C 7.355469 13.40625 7.332031 13.417969 7.3125 13.433594 C 7.25 13.46875 7.25 13.46875 7.1875 13.46875 C 7.179688 13.488281 7.171875 13.503906 7.164062 13.523438 C 7.117188 13.605469 7.066406 13.660156 7 13.726562 C 6.976562 13.75 6.957031 13.769531 6.933594 13.792969 C 6.875 13.84375 6.875 13.84375 6.8125 13.84375 C 6.917969 13.597656 7.148438 13.425781 7.378906 13.300781 C 7.410156 13.292969 7.410156 13.292969 7.4375 13.28125 Z M 7.4375 13.28125 "/>
<path style=" stroke:none;fill-rule:nonzero;fill:rgb(77.254903%,77.64706%,77.64706%);fill-opacity:1;" d="M 17.25 11.34375 C 17.597656 11.332031 17.9375 11.367188 18.28125 11.40625 C 18.28125 11.417969 18.28125 11.425781 18.28125 11.4375 C 18.261719 11.4375 18.242188 11.4375 18.21875 11.4375 C 18.128906 11.4375 18.035156 11.4375 17.945312 11.4375 C 17.910156 11.433594 17.878906 11.433594 17.847656 11.433594 C 17.816406 11.433594 17.785156 11.433594 17.753906 11.433594 C 17.726562 11.433594 17.695312 11.433594 17.667969 11.433594 C 17.589844 11.433594 17.589844 11.433594 17.5 11.46875 C 17.5 11.4375 17.5 11.40625 17.5 11.375 C 17.417969 11.375 17.335938 11.375 17.25 11.375 C 17.25 11.363281 17.25 11.355469 17.25 11.34375 Z M 17.25 11.34375 "/>
<path style=" stroke:none;fill-rule:nonzero;fill:rgb(93.725491%,94.117647%,94.117647%);fill-opacity:1;" d="M 6.34375 16.5625 C 6.355469 16.5625 6.363281 16.5625 6.375 16.5625 C 6.375 16.632812 6.375 16.707031 6.375 16.78125 C 6.363281 16.78125 6.355469 16.78125 6.34375 16.78125 C 6.34375 16.710938 6.34375 16.636719 6.34375 16.5625 Z M 6.34375 16.5625 "/>
<path style=" stroke:none;fill-rule:nonzero;fill:rgb(95.294118%,94.901961%,94.901961%);fill-opacity:1;" d="M 19.125 22.90625 C 19.144531 22.917969 19.167969 22.925781 19.1875 22.9375 C 19.167969 22.957031 19.144531 22.980469 19.125 23 C 19.105469 22.980469 19.082031 22.957031 19.0625 22.9375 C 19.082031 22.925781 19.105469 22.917969 19.125 22.90625 Z M 19.125 22.90625 "/>
<path style=" stroke:none;fill-rule:nonzero;fill:rgb(96.078432%,96.078432%,96.470588%);fill-opacity:1;" d="M 12.5625 22.59375 C 12.613281 22.59375 12.664062 22.59375 12.71875 22.59375 C 12.699219 22.613281 12.675781 22.636719 12.65625 22.65625 C 12.625 22.636719 12.59375 22.613281 12.5625 22.59375 Z M 12.5625 22.59375 "/>
<path style=" stroke:none;fill-rule:nonzero;fill:rgb(94.901961%,95.686275%,95.294118%);fill-opacity:1;" d="M 21.5 21.9375 C 21.519531 21.949219 21.542969 21.957031 21.5625 21.96875 C 21.519531 21.980469 21.480469 21.988281 21.4375 22 C 21.457031 21.980469 21.480469 21.957031 21.5 21.9375 Z M 21.5 21.9375 "/>
<path style=" stroke:none;fill-rule:nonzero;fill:rgb(93.725491%,93.725491%,93.333334%);fill-opacity:1;" d="M 10.28125 21.875 C 10.300781 21.875 10.324219 21.875 10.34375 21.875 C 10.34375 21.90625 10.34375 21.9375 10.34375 21.96875 C 10.324219 21.957031 10.300781 21.949219 10.28125 21.9375 C 10.28125 21.917969 10.28125 21.894531 10.28125 21.875 Z M 10.28125 21.875 "/>
<path style=" stroke:none;fill-rule:nonzero;fill:rgb(97.647059%,98.431373%,98.039216%);fill-opacity:1;" d="M 13.53125 20.25 C 13.582031 20.25 13.632812 20.25 13.6875 20.25 C 13.6875 20.261719 13.6875 20.269531 13.6875 20.28125 C 13.636719 20.28125 13.585938 20.28125 13.53125 20.28125 C 13.53125 20.269531 13.53125 20.261719 13.53125 20.25 Z M 13.53125 20.25 "/>
<path style=" stroke:none;fill-rule:nonzero;fill:rgb(98.431373%,98.431373%,98.039216%);fill-opacity:1;" d="M 20.125 11.90625 C 20.125 11.9375 20.125 11.96875 20.125 12 C 20.105469 11.980469 20.082031 11.957031 20.0625 11.9375 C 20.082031 11.925781 20.105469 11.917969 20.125 11.90625 Z M 20.125 11.90625 "/>
<path style=" stroke:none;fill-rule:nonzero;fill:rgb(96.862745%,97.647059%,96.862745%);fill-opacity:1;" d="M 18 11.46875 C 18.050781 11.46875 18.101562 11.46875 18.15625 11.46875 C 18.15625 11.480469 18.15625 11.488281 18.15625 11.5 C 18.105469 11.5 18.054688 11.5 18 11.5 C 18 11.488281 18 11.480469 18 11.46875 Z M 18 11.46875 "/>
<path style=" stroke:none;fill-rule:nonzero;fill:rgb(96.862745%,97.254902%,97.254902%);fill-opacity:1;" d="M 17.59375 11.4375 C 17.636719 11.4375 17.675781 11.4375 17.71875 11.4375 C 17.707031 11.457031 17.699219 11.480469 17.6875 11.5 C 17.65625 11.480469 17.625 11.457031 17.59375 11.4375 Z M 17.59375 11.4375 "/>
<path style=" stroke:none;fill-rule:nonzero;fill:rgb(95.686275%,95.686275%,95.294118%);fill-opacity:1;" d="M 19.8125 9.28125 C 19.84375 9.296875 19.84375 9.296875 19.875 9.3125 C 19.875 9.332031 19.875 9.355469 19.875 9.375 C 19.855469 9.375 19.832031 9.375 19.8125 9.375 C 19.8125 9.34375 19.8125 9.3125 19.8125 9.28125 Z M 19.8125 9.28125 "/>
<path style=" stroke:none;fill-rule:nonzero;fill:rgb(96.078432%,96.078432%,96.078432%);fill-opacity:1;" d="M 12.75 22.625 C 12.875 22.65625 12.875 22.65625 12.875 22.65625 Z M 12.75 22.625 "/>
<path style=" stroke:none;fill-rule:nonzero;fill:rgb(94.117647%,94.509804%,93.725491%);fill-opacity:1;" d="M 8.59375 20.375 C 8.625 20.421875 8.625 20.421875 8.65625 20.46875 C 8.636719 20.46875 8.613281 20.46875 8.59375 20.46875 C 8.59375 20.4375 8.59375 20.40625 8.59375 20.375 Z M 8.59375 20.375 "/>
<path style=" stroke:none;fill-rule:nonzero;fill:rgb(95.294118%,94.901961%,95.294118%);fill-opacity:1;" d="M 7.3125 18.40625 C 7.359375 18.4375 7.359375 18.4375 7.40625 18.46875 C 7.375 18.46875 7.34375 18.46875 7.3125 18.46875 C 7.3125 18.449219 7.3125 18.425781 7.3125 18.40625 Z M 7.3125 18.40625 "/>
<path style=" stroke:none;fill-rule:nonzero;fill:rgb(98.039216%,98.039216%,98.039216%);fill-opacity:1;" d="M 21.8125 17.59375 C 21.84375 17.71875 21.84375 17.71875 21.84375 17.71875 Z M 21.8125 17.59375 "/>
<path style=" stroke:none;fill-rule:nonzero;fill:rgb(97.254902%,97.254902%,97.254902%);fill-opacity:1;" d="M 12.3125 16.5625 C 12.34375 16.578125 12.34375 16.578125 12.375 16.59375 C 12.363281 16.613281 12.355469 16.636719 12.34375 16.65625 C 12.332031 16.625 12.324219 16.59375 12.3125 16.5625 Z M 12.3125 16.5625 "/>
<path style=" stroke:none;fill-rule:nonzero;fill:rgb(94.901961%,94.901961%,94.901961%);fill-opacity:1;" d="M 6.3125 15.09375 C 6.34375 15.21875 6.34375 15.21875 6.34375 15.21875 Z M 6.3125 15.09375 "/>
<path style=" stroke:none;fill-rule:nonzero;fill:rgb(97.647059%,97.647059%,97.647059%);fill-opacity:1;" d="M 21.84375 14.125 C 21.875 14.25 21.875 14.25 21.875 14.25 Z M 21.84375 14.125 "/>
<path style=" stroke:none;fill-rule:nonzero;fill:rgb(98.431373%,98.431373%,98.039216%);fill-opacity:1;" d="M 19.96875 11.84375 C 20 11.855469 20.03125 11.863281 20.0625 11.875 C 20.03125 11.875 20 11.875 19.96875 11.875 C 19.96875 11.863281 19.96875 11.855469 19.96875 11.84375 Z M 19.96875 11.84375 "/>
<path style=" stroke:none;fill-rule:nonzero;fill:rgb(98.431373%,98.431373%,98.431373%);fill-opacity:1;" d="M 19.8125 11.8125 C 19.84375 11.824219 19.875 11.832031 19.90625 11.84375 C 19.875 11.855469 19.84375 11.863281 19.8125 11.875 C 19.8125 11.855469 19.8125 11.832031 19.8125 11.8125 Z M 19.8125 11.8125 "/>
<path style=" stroke:none;fill-rule:nonzero;fill:rgb(98.431373%,98.431373%,98.039216%);fill-opacity:1;" d="M 18.71875 11.5625 C 18.84375 11.59375 18.84375 11.59375 18.84375 11.59375 Z M 18.71875 11.5625 "/>
<path style=" stroke:none;fill-rule:nonzero;fill:rgb(97.254902%,97.647059%,97.254902%);fill-opacity:1;" d="M 13.875 11.46875 C 14 11.5 14 11.5 14 11.5 Z M 13.875 11.46875 "/>
<path style=" stroke:none;fill-rule:nonzero;fill:rgb(95.294118%,95.294118%,94.901961%);fill-opacity:1;" d="M 20.15625 9.375 C 20.167969 9.394531 20.175781 9.417969 20.1875 9.4375 C 20.15625 9.425781 20.125 9.417969 20.09375 9.40625 C 20.113281 9.394531 20.136719 9.386719 20.15625 9.375 Z M 20.15625 9.375 "/>
<path style=" stroke:none;fill-rule:nonzero;fill:rgb(95.686275%,95.686275%,95.686275%);fill-opacity:1;" d="M 19.3125 9.25 C 19.4375 9.28125 19.4375 9.28125 19.4375 9.28125 Z M 19.3125 9.25 "/>
<path style=" stroke:none;fill-rule:nonzero;fill:rgb(91.764706%,92.156863%,92.156863%);fill-opacity:1;" d="M 16.03125 5 C 16.15625 5.03125 16.15625 5.03125 16.15625 5.03125 Z M 16.03125 5 "/>
<path style=" stroke:none;fill-rule:nonzero;fill:rgb(94.901961%,94.901961%,94.509804%);fill-opacity:1;" d="M 16.6875 23.8125 C 16.707031 23.832031 16.730469 23.855469 16.75 23.875 C 16.730469 23.875 16.707031 23.875 16.6875 23.875 C 16.6875 23.855469 16.6875 23.832031 16.6875 23.8125 Z M 16.6875 23.8125 "/>
<path style=" stroke:none;fill-rule:nonzero;fill:rgb(95.686275%,95.686275%,95.294118%);fill-opacity:1;" d="M 18.34375 23.1875 C 18.4375 23.21875 18.4375 23.21875 18.4375 23.21875 Z M 18.34375 23.1875 "/>
<path style=" stroke:none;fill-rule:nonzero;fill:rgb(96.862745%,97.254902%,96.862745%);fill-opacity:1;" d="M 13.34375 22.6875 C 13.4375 22.71875 13.4375 22.71875 13.4375 22.71875 Z M 13.34375 22.6875 "/>
<path style=" stroke:none;fill-rule:nonzero;fill:rgb(96.078432%,95.686275%,96.470588%);fill-opacity:1;" d="M 13.125 22.65625 C 13.136719 22.675781 13.144531 22.699219 13.15625 22.71875 C 13.136719 22.707031 13.113281 22.699219 13.09375 22.6875 C 13.105469 22.675781 13.113281 22.667969 13.125 22.65625 Z M 13.125 22.65625 "/>
<path style=" stroke:none;fill-rule:nonzero;fill:rgb(93.333334%,93.333334%,93.333334%);fill-opacity:1;" d="M 10.75 22.09375 C 10.769531 22.09375 10.792969 22.09375 10.8125 22.09375 C 10.800781 22.113281 10.792969 22.136719 10.78125 22.15625 C 10.769531 22.136719 10.761719 22.113281 10.75 22.09375 Z M 10.75 22.09375 "/>
<path style=" stroke:none;fill-rule:nonzero;fill:rgb(93.333334%,92.941177%,93.333334%);fill-opacity:1;" d="M 9.78125 21.59375 C 9.800781 21.59375 9.824219 21.59375 9.84375 21.59375 C 9.832031 21.613281 9.824219 21.636719 9.8125 21.65625 C 9.800781 21.636719 9.792969 21.613281 9.78125 21.59375 Z M 9.78125 21.59375 "/>
<path style=" stroke:none;fill-rule:nonzero;fill:rgb(97.647059%,98.039216%,97.647059%);fill-opacity:1;" d="M 14.3125 20.28125 C 14.324219 20.300781 14.332031 20.324219 14.34375 20.34375 C 14.324219 20.332031 14.300781 20.324219 14.28125 20.3125 C 14.292969 20.300781 14.300781 20.292969 14.3125 20.28125 Z M 14.3125 20.28125 "/>
<path style=" stroke:none;fill-rule:nonzero;fill:rgb(98.431373%,98.039216%,98.039216%);fill-opacity:1;" d="M 11.1875 19.5625 C 11.199219 19.582031 11.207031 19.605469 11.21875 19.625 C 11.199219 19.613281 11.175781 19.605469 11.15625 19.59375 C 11.167969 19.582031 11.175781 19.574219 11.1875 19.5625 Z M 11.1875 19.5625 "/>
<path style=" stroke:none;fill-rule:nonzero;fill:rgb(95.294118%,95.686275%,95.294118%);fill-opacity:1;" d="M 6.3125 16.21875 C 6.324219 16.238281 6.332031 16.261719 6.34375 16.28125 C 6.324219 16.269531 6.300781 16.261719 6.28125 16.25 C 6.292969 16.238281 6.300781 16.230469 6.3125 16.21875 Z M 6.3125 16.21875 "/>
<path style=" stroke:none;fill-rule:nonzero;fill:rgb(93.725491%,93.725491%,93.725491%);fill-opacity:1;" d="M 25.375 14.34375 C 25.394531 14.363281 25.417969 14.386719 25.4375 14.40625 C 25.417969 14.40625 25.394531 14.40625 25.375 14.40625 C 25.375 14.386719 25.375 14.363281 25.375 14.34375 Z M 25.375 14.34375 "/>
<path style=" stroke:none;fill-rule:nonzero;fill:rgb(98.039216%,98.039216%,98.039216%);fill-opacity:1;" d="M 21.59375 13.25 C 21.605469 13.269531 21.613281 13.292969 21.625 13.3125 C 21.605469 13.300781 21.582031 13.292969 21.5625 13.28125 C 21.574219 13.269531 21.582031 13.261719 21.59375 13.25 Z M 21.59375 13.25 "/>
<path style=" stroke:none;fill-rule:nonzero;fill:rgb(98.431373%,98.823529%,98.431373%);fill-opacity:1;" d="M 20.5 12.09375 C 20.59375 12.125 20.59375 12.125 20.59375 12.125 Z M 20.5 12.09375 "/>
<path style=" stroke:none;fill-rule:nonzero;fill:rgb(97.647059%,97.647059%,97.647059%);fill-opacity:1;" d="M 12.625 11.65625 C 12.644531 11.65625 12.667969 11.65625 12.6875 11.65625 C 12.675781 11.675781 12.667969 11.699219 12.65625 11.71875 C 12.644531 11.699219 12.636719 11.675781 12.625 11.65625 Z M 12.625 11.65625 "/>
<path style=" stroke:none;fill-rule:nonzero;fill:rgb(98.039216%,98.039216%,97.647059%);fill-opacity:1;" d="M 18.9375 11.59375 C 19.03125 11.625 19.03125 11.625 19.03125 11.625 Z M 18.9375 11.59375 "/>
<path style=" stroke:none;fill-rule:nonzero;fill:rgb(94.901961%,94.117647%,94.117647%);fill-opacity:1;" d="M 20.84375 9.625 C 20.9375 9.65625 20.9375 9.65625 20.9375 9.65625 Z M 20.84375 9.625 "/>
<path style=" stroke:none;fill-rule:nonzero;fill:rgb(94.901961%,94.509804%,94.509804%);fill-opacity:1;" d="M 20.5625 9.53125 C 20.65625 9.5625 20.65625 9.5625 20.65625 9.5625 Z M 20.5625 9.53125 "/>
<path style=" stroke:none;fill-rule:nonzero;fill:rgb(95.294118%,95.294118%,94.901961%);fill-opacity:1;" d="M 11.375 9.5 C 11.46875 9.53125 11.46875 9.53125 11.46875 9.53125 Z M 11.375 9.5 "/>
<path style=" stroke:none;fill-rule:nonzero;fill:rgb(96.470588%,96.470588%,96.078432%);fill-opacity:1;" d="M 12.3125 9.28125 C 12.40625 9.3125 12.40625 9.3125 12.40625 9.3125 Z M 12.3125 9.28125 "/>
<path style=" stroke:none;fill-rule:nonzero;fill:rgb(96.862745%,96.862745%,96.862745%);fill-opacity:1;" d="M 13.0625 9.15625 C 13.15625 9.1875 13.15625 9.1875 13.15625 9.1875 Z M 13.0625 9.15625 "/>
<path style=" stroke:none;fill-rule:nonzero;fill:rgb(97.254902%,98.039216%,97.647059%);fill-opacity:1;" d="M 15.03125 8.5 C 15.125 8.53125 15.125 8.53125 15.125 8.53125 Z M 15.03125 8.5 "/>
<path style=" stroke:none;fill-rule:nonzero;fill:rgb(91.37255%,91.37255%,91.764706%);fill-opacity:1;" d="M 16.1875 5 C 16.207031 5.019531 16.230469 5.042969 16.25 5.0625 C 16.230469 5.0625 16.207031 5.0625 16.1875 5.0625 C 16.1875 5.042969 16.1875 5.019531 16.1875 5 Z M 16.1875 5 "/>
<path style=" stroke:none;fill-rule:nonzero;fill:rgb(93.333334%,93.333334%,92.941177%);fill-opacity:1;" d="M 14.375 24.71875 C 14.4375 24.75 14.4375 24.75 14.4375 24.75 Z M 14.375 24.71875 "/>
<path style=" stroke:none;fill-rule:nonzero;fill:rgb(91.37255%,91.764706%,91.764706%);fill-opacity:1;" d="M 13.84375 24.46875 C 13.90625 24.5 13.90625 24.5 13.90625 24.5 Z M 13.84375 24.46875 "/>
<path style=" stroke:none;fill-rule:nonzero;fill:rgb(94.509804%,94.901961%,94.901961%);fill-opacity:1;" d="M 17.78125 23.40625 C 17.84375 23.4375 17.84375 23.4375 17.84375 23.4375 Z M 17.78125 23.40625 "/>
<path style=" stroke:none;fill-rule:nonzero;fill:rgb(95.294118%,95.686275%,94.509804%);fill-opacity:1;" d="M 17.9375 23.34375 C 18 23.375 18 23.375 18 23.375 Z M 17.9375 23.34375 "/>
<path style=" stroke:none;fill-rule:nonzero;fill:rgb(94.901961%,95.686275%,95.294118%);fill-opacity:1;" d="M 18.25 23.21875 C 18.3125 23.25 18.3125 23.25 18.3125 23.25 Z M 18.25 23.21875 "/>
<path style=" stroke:none;fill-rule:nonzero;fill:rgb(93.725491%,94.509804%,94.117647%);fill-opacity:1;" d="M 18.9375 22.96875 C 19 23 19 23 19 23 Z M 18.9375 22.96875 "/>
<path style=" stroke:none;fill-rule:nonzero;fill:rgb(94.509804%,94.509804%,94.509804%);fill-opacity:1;" d="M 19.625 22.71875 C 19.6875 22.75 19.6875 22.75 19.6875 22.75 Z M 19.625 22.71875 "/>
<path style=" stroke:none;fill-rule:nonzero;fill:rgb(96.470588%,96.470588%,96.078432%);fill-opacity:1;" d="M 13.59375 22.71875 C 13.65625 22.75 13.65625 22.75 13.65625 22.75 Z M 13.59375 22.71875 "/>
<path style=" stroke:none;fill-rule:nonzero;fill:rgb(94.901961%,94.901961%,94.509804%);fill-opacity:1;" d="M 19.90625 22.625 C 19.96875 22.65625 19.96875 22.65625 19.96875 22.65625 Z M 19.90625 22.625 "/>
<path style=" stroke:none;fill-rule:nonzero;fill:rgb(94.509804%,94.901961%,94.509804%);fill-opacity:1;" d="M 20.9375 22.21875 C 21 22.25 21 22.25 21 22.25 Z M 20.9375 22.21875 "/>
<path style=" stroke:none;fill-rule:nonzero;fill:rgb(93.333334%,93.333334%,93.333334%);fill-opacity:1;" d="M 10.6875 22.0625 C 10.75 22.09375 10.75 22.09375 10.75 22.09375 Z M 10.6875 22.0625 "/>
<path style=" stroke:none;fill-rule:nonzero;fill:rgb(93.333334%,93.333334%,93.333334%);fill-opacity:1;" d="M 10.375 21.9375 C 10.4375 21.96875 10.4375 21.96875 10.4375 21.96875 Z M 10.375 21.9375 "/>
<path style=" stroke:none;fill-rule:nonzero;fill:rgb(93.333334%,93.333334%,93.725491%);fill-opacity:1;" d="M 10.21875 21.84375 C 10.28125 21.875 10.28125 21.875 10.28125 21.875 Z M 10.21875 21.84375 "/>
<path style=" stroke:none;fill-rule:nonzero;fill:rgb(92.156863%,92.156863%,91.764706%);fill-opacity:1;" d="M 9.75 21.65625 C 9.8125 21.6875 9.8125 21.6875 9.8125 21.6875 Z M 9.75 21.65625 "/>
<path style=" stroke:none;fill-rule:nonzero;fill:rgb(92.941177%,93.333334%,92.54902%);fill-opacity:1;" d="M 9.125 21.0625 C 9.1875 21.09375 9.1875 21.09375 9.1875 21.09375 Z M 9.125 21.0625 "/>
<path style=" stroke:none;fill-rule:nonzero;fill:rgb(96.862745%,97.254902%,97.254902%);fill-opacity:1;" d="M 15.625 20.375 C 15.6875 20.40625 15.6875 20.40625 15.6875 20.40625 Z M 15.625 20.375 "/>
<path style=" stroke:none;fill-rule:nonzero;fill:rgb(97.647059%,97.647059%,97.647059%);fill-opacity:1;" d="M 18.28125 20.25 C 18.34375 20.28125 18.34375 20.28125 18.34375 20.28125 Z M 18.28125 20.25 "/>
<path style=" stroke:none;fill-rule:nonzero;fill:rgb(97.254902%,97.254902%,96.862745%);fill-opacity:1;" d="M 12.78125 17.09375 C 12.84375 17.125 12.84375 17.125 12.84375 17.125 Z M 12.78125 17.09375 "/>
<path style=" stroke:none;fill-rule:nonzero;fill:rgb(97.254902%,97.647059%,97.254902%);fill-opacity:1;" d="M 19.375 16.6875 C 19.4375 16.71875 19.4375 16.71875 19.4375 16.71875 Z M 19.375 16.6875 "/>
<path style=" stroke:none;fill-rule:nonzero;fill:rgb(96.862745%,96.862745%,96.862745%);fill-opacity:1;" d="M 18.9375 14.34375 C 19 14.375 19 14.375 19 14.375 Z M 18.9375 14.34375 "/>
<path style=" stroke:none;fill-rule:nonzero;fill:rgb(97.254902%,97.254902%,97.254902%);fill-opacity:1;" d="M 20.59375 12.21875 C 20.65625 12.25 20.65625 12.25 20.65625 12.25 Z M 20.59375 12.21875 "/>
<path style=" stroke:none;fill-rule:nonzero;fill:rgb(96.078432%,95.686275%,96.078432%);fill-opacity:1;" d="M 8.25 11.96875 C 8.3125 12 8.3125 12 8.3125 12 Z M 8.25 11.96875 "/>
<path style=" stroke:none;fill-rule:nonzero;fill:rgb(98.039216%,98.431373%,97.647059%);fill-opacity:1;" d="M 11.625 11.9375 C 11.6875 11.96875 11.6875 11.96875 11.6875 11.96875 Z M 11.625 11.9375 "/>
<path style=" stroke:none;fill-rule:nonzero;fill:rgb(98.431373%,98.431373%,97.647059%);fill-opacity:1;" d="M 11.9375 11.84375 C 12 11.875 12 11.875 12 11.875 Z M 11.9375 11.84375 "/>
<path style=" stroke:none;fill-rule:nonzero;fill:rgb(97.254902%,97.254902%,96.862745%);fill-opacity:1;" d="M 19.375 11.6875 C 19.4375 11.71875 19.4375 11.71875 19.4375 11.71875 Z M 19.375 11.6875 "/>
<path style=" stroke:none;fill-rule:nonzero;fill:rgb(98.039216%,98.039216%,98.431373%);fill-opacity:1;" d="M 19.125 11.625 C 19.1875 11.65625 19.1875 11.65625 19.1875 11.65625 Z M 19.125 11.625 "/>
<path style=" stroke:none;fill-rule:nonzero;fill:rgb(98.039216%,98.431373%,98.039216%);fill-opacity:1;" d="M 18.84375 11.59375 C 18.90625 11.625 18.90625 11.625 18.90625 11.625 Z M 18.84375 11.59375 "/>
<path style=" stroke:none;fill-rule:nonzero;fill:rgb(98.039216%,98.039216%,97.647059%);fill-opacity:1;" d="M 12.9375 11.59375 C 13 11.625 13 11.625 13 11.625 Z M 12.9375 11.59375 "/>
<path style=" stroke:none;fill-rule:nonzero;fill:rgb(98.039216%,98.039216%,98.039216%);fill-opacity:1;" d="M 14.09375 11.4375 C 14.15625 11.46875 14.15625 11.46875 14.15625 11.46875 Z M 14.09375 11.4375 "/>
<path style=" stroke:none;fill-rule:nonzero;fill:rgb(97.647059%,98.039216%,97.254902%);fill-opacity:1;" d="M 17.21875 11.40625 C 17.28125 11.4375 17.28125 11.4375 17.28125 11.4375 Z M 17.21875 11.40625 "/>
<path style=" stroke:none;fill-rule:nonzero;fill:rgb(98.039216%,97.647059%,98.039216%);fill-opacity:1;" d="M 17.03125 11.40625 C 17.09375 11.4375 17.09375 11.4375 17.09375 11.4375 Z M 17.03125 11.40625 "/>
<path style=" stroke:none;fill-rule:nonzero;fill:rgb(98.039216%,97.647059%,98.039216%);fill-opacity:1;" d="M 14.53125 11.40625 C 14.59375 11.4375 14.59375 11.4375 14.59375 11.4375 Z M 14.53125 11.40625 "/>
<path style=" stroke:none;fill-rule:nonzero;fill:rgb(97.647059%,97.254902%,97.647059%);fill-opacity:1;" d="M 14.375 11.40625 C 14.4375 11.4375 14.4375 11.4375 14.4375 11.4375 Z M 14.375 11.40625 "/>
<path style=" stroke:none;fill-rule:nonzero;fill:rgb(97.254902%,97.254902%,97.647059%);fill-opacity:1;" d="M 16.625 11.375 C 16.6875 11.40625 16.6875 11.40625 16.6875 11.40625 Z M 16.625 11.375 "/>
<path style=" stroke:none;fill-rule:nonzero;fill:rgb(98.039216%,98.431373%,98.431373%);fill-opacity:1;" d="M 14.875 11.375 C 14.9375 11.40625 14.9375 11.40625 14.9375 11.40625 Z M 14.875 11.375 "/>
<path style=" stroke:none;fill-rule:nonzero;fill:rgb(92.941177%,92.941177%,92.156863%);fill-opacity:1;" d="M 22.625 10.5625 C 22.6875 10.59375 22.6875 10.59375 22.6875 10.59375 Z M 22.625 10.5625 "/>
<path style=" stroke:none;fill-rule:nonzero;fill:rgb(95.686275%,95.686275%,94.901961%);fill-opacity:1;" d="M 10.09375 10.03125 C 10.15625 10.0625 10.15625 10.0625 10.15625 10.0625 Z M 10.09375 10.03125 "/>
<path style=" stroke:none;fill-rule:nonzero;fill:rgb(94.509804%,94.509804%,94.509804%);fill-opacity:1;" d="M 10.15625 10 C 10.21875 10.03125 10.21875 10.03125 10.21875 10.03125 Z M 10.15625 10 "/>
<path style=" stroke:none;fill-rule:nonzero;fill:rgb(94.117647%,94.509804%,94.901961%);fill-opacity:1;" d="M 20.4375 9.5 C 20.5 9.53125 20.5 9.53125 20.5 9.53125 Z M 20.4375 9.5 "/>
<path style=" stroke:none;fill-rule:nonzero;fill:rgb(95.686275%,96.078432%,96.078432%);fill-opacity:1;" d="M 11.75 9.40625 C 11.8125 9.4375 11.8125 9.4375 11.8125 9.4375 Z M 11.75 9.40625 "/>
<path style=" stroke:none;fill-rule:nonzero;fill:rgb(95.686275%,95.686275%,95.686275%);fill-opacity:1;" d="M 11.875 9.375 C 11.9375 9.40625 11.9375 9.40625 11.9375 9.40625 Z M 11.875 9.375 "/>
<path style=" stroke:none;fill-rule:nonzero;fill:rgb(96.862745%,96.862745%,96.470588%);fill-opacity:1;" d="M 12.53125 9.25 C 12.59375 9.28125 12.59375 9.28125 12.59375 9.28125 Z M 12.53125 9.25 "/>
<path style=" stroke:none;fill-rule:nonzero;fill:rgb(96.470588%,96.862745%,96.470588%);fill-opacity:1;" d="M 18.625 9.125 C 18.6875 9.15625 18.6875 9.15625 18.6875 9.15625 Z M 18.625 9.125 "/>
<path style=" stroke:none;fill-rule:nonzero;fill:rgb(96.470588%,96.862745%,96.862745%);fill-opacity:1;" d="M 17.375 8.625 C 17.4375 8.65625 17.4375 8.65625 17.4375 8.65625 Z M 17.375 8.625 "/>
<path style=" stroke:none;fill-rule:nonzero;fill:rgb(97.647059%,97.647059%,97.254902%);fill-opacity:1;" d="M 14.78125 8.5625 C 14.84375 8.59375 14.84375 8.59375 14.84375 8.59375 Z M 14.78125 8.5625 "/>
<path style=" stroke:none;fill-rule:nonzero;fill:rgb(96.078432%,96.862745%,96.470588%);fill-opacity:1;" d="M 17.4375 8.53125 C 17.5 8.5625 17.5 8.5625 17.5 8.5625 Z M 17.4375 8.53125 "/>
<path style=" stroke:none;fill-rule:nonzero;fill:rgb(97.254902%,97.254902%,97.647059%);fill-opacity:1;" d="M 16.78125 8.5 C 16.84375 8.53125 16.84375 8.53125 16.84375 8.53125 Z M 16.78125 8.5 "/>
<path style=" stroke:none;fill-rule:nonzero;fill:rgb(98.039216%,97.647059%,97.647059%);fill-opacity:1;" d="M 16.375 8.125 C 16.4375 8.15625 16.4375 8.15625 16.4375 8.15625 Z M 16.375 8.125 "/>
<path style=" stroke:none;fill-rule:nonzero;fill:rgb(97.254902%,97.254902%,96.862745%);fill-opacity:1;" d="M 16.375 7.375 C 16.4375 7.40625 16.4375 7.40625 16.4375 7.40625 Z M 16.375 7.375 "/>
<path style=" stroke:none;fill-rule:nonzero;fill:rgb(91.764706%,91.764706%,91.37255%);fill-opacity:1;" d="M 16.3125 5.0625 C 16.375 5.09375 16.375 5.09375 16.375 5.09375 Z M 16.3125 5.0625 "/>
</g>
</svg>
