<svg width="109" height="44" viewBox="0 0 109 44" fill="none" xmlns="http://www.w3.org/2000/svg">
<g clip-path="url(#clip0_1_10354)">
<path d="M90.9044 23.4891C90.8158 28.3843 91.8718 30.9772 95.9026 30.9772C99.9267 30.9772 100.504 26.5603 100.504 23.1992C100.504 19.8359 99.7406 16.5709 95.5127 16.5709C92.919 16.5709 91.0041 18.5886 90.9044 23.4891ZM82.7498 43.9454V10.8092H91.0041C91.0041 10.8092 91.0041 11.289 91.0041 12.1533C91.0041 13.9462 91.7263 13.2069 92.3083 12.5082C92.4058 12.3914 94.2454 10.1371 98.3884 10.1371C102.519 10.1371 108.945 13.0176 108.945 23.1992C108.945 31.0748 105.111 36.8366 98.4903 36.8366C94.8421 36.8366 92.7329 35.3985 92.2507 34.8181C91.7677 34.2459 91.0971 34.1461 91.0971 34.8181C91.0971 35.4917 91.0971 43.9454 91.0971 43.9454H82.7498Z" fill="#5F5F5F"/>
<path d="M18.9522 0.0545616H27.8748C27.8748 0.0545616 27.8748 19.4537 27.8748 23.4891C27.8748 27.52 26.146 35.9745 13.7723 35.9745C1.39705 35.9745 0.0544434 28.0945 0.0544434 23.6798V19.3583H8.6891C8.6891 19.3583 8.6891 20.9908 8.6891 23.5822C8.6891 26.1751 10.4165 28.5751 13.6762 28.5751C16.9375 28.5751 18.9522 26.7511 18.9522 23.6798C18.9522 20.6063 18.9522 0.0545616 18.9522 0.0545616Z" fill="#5F5F5F"/>
<path d="M46.5291 19.9342C46.5291 17.5306 45.1887 15.226 42.1187 15.226C39.1448 15.226 38.0887 17.3369 38.0887 19.9342H46.5291ZM41.2584 9.84873C48.2654 9.84873 54.4024 12.537 54.4024 24.9271H37.8073C37.8073 28.8649 39.4365 30.4981 42.3144 30.4981C45.1932 30.4981 46.1517 28.1913 46.1517 28.1913H54.3086C54.3086 31.7461 49.4152 36.5482 42.0264 36.4528C33.5867 36.4528 29.4607 30.2097 29.4607 23.7744C29.4607 17.3369 33.1038 9.84873 41.2584 9.84873Z" fill="#5F5F5F"/>
<path d="M73.0626 19.9342C73.0626 17.5306 71.7207 15.226 68.6507 15.226C65.6782 15.226 64.6199 17.3369 64.6199 19.9342H73.0626ZM67.7918 9.84873C74.7981 9.84873 80.9336 12.537 80.9336 24.9271H64.3393C64.3393 28.8649 65.9699 30.4981 68.8501 30.4981C71.7259 30.4981 72.6859 28.1913 72.6859 28.1913H80.8428C80.8428 31.7461 75.9487 36.5482 68.5621 36.4528C60.118 36.4528 55.9919 30.2097 55.9919 23.7744C55.9919 17.3369 59.6394 9.84873 67.7918 9.84873Z" fill="#5F5F5F"/>
<path d="M103.485 39.9727C103.485 38.6604 104.553 37.5943 105.868 37.5943C107.179 37.5943 108.244 38.6604 108.244 39.9727C108.244 41.2829 107.179 42.3557 105.868 42.3557C104.553 42.3557 103.485 41.2829 103.485 39.9727ZM103.211 39.9727C103.211 41.4411 104.398 42.6329 105.868 42.6329C107.328 42.6329 108.522 41.4411 108.522 39.9727C108.522 38.5044 107.328 37.3126 105.868 37.3126C104.398 37.3126 103.211 38.5044 103.211 39.9727Z" fill="#5F5F5F"/>
<path d="M106.934 41.3331L106.383 40.0289C106.558 39.9683 106.616 39.9254 106.709 39.8256C106.83 39.6955 106.906 39.4899 106.906 39.3036C106.906 38.8334 106.545 38.5132 106.022 38.5132H104.914V41.3331H105.242V40.1117H106.043L106.569 41.3331H106.934ZM105.234 39.8256V38.8201H106.015C106.341 38.8201 106.549 39.0064 106.549 39.2947C106.549 39.6223 106.329 39.8256 105.969 39.8256H105.234Z" fill="#5F5F5F"/>
</g>
<defs>
<clipPath id="clip0_1_10354">
<rect width="109" height="44" fill="white"/>
</clipPath>
</defs>
</svg>
